<svg xmlns="http://www.w3.org/2000/svg" width="66" height="22" viewBox="0 0 66 22" preserveAspectRatio="xMinYMid meet"><path fill="none" d="M-.481 5.883h88.042v13.53H-.481z"/><path d="M7.083 12.335l1.997.634c-.307 1.113-.815 1.94-1.527 2.48s-1.616.811-2.71.811c-1.354 0-2.468-.463-3.34-1.388-.872-.926-1.308-2.191-1.308-3.796 0-1.698.438-3.016 1.315-3.956.876-.939 2.029-1.409 3.458-1.409 1.248 0 2.261.369 3.041 1.106.464.436.812 1.062 1.043 1.878l-2.039.487c-.121-.529-.372-.946-.755-1.252s-.848-.459-1.395-.459c-.756 0-1.37.271-1.84.814-.471.542-.707 1.422-.707 2.637 0 1.29.232 2.208.696 2.756.463.547 1.066.821 1.809.821.547 0 1.019-.175 1.413-.522.395-.348.677-.896.849-1.643zM10.375 16.086V5.969h2.06v8.398h5.121v1.719h-7.181zM18.079 11.048c0-1.039.155-1.911.466-2.616.232-.52.548-.986.95-1.398a3.964 3.964 0 0 1 1.318-.918c.636-.269 1.369-.404 2.199-.404 1.503 0 2.705.466 3.607 1.399.902.932 1.354 2.229 1.354 3.889 0 1.647-.448 2.936-1.343 3.866-.896.93-2.092 1.395-3.591 1.395-1.517 0-2.723-.463-3.618-1.388-.895-.926-1.343-2.2-1.343-3.824zm2.122-.069c0 1.155.267 2.03.8 2.627.534.596 1.211.895 2.032.895s1.495-.296 2.021-.888.79-1.479.79-2.661c0-1.169-.256-2.041-.769-2.616-.513-.575-1.193-.863-2.042-.863s-1.533.292-2.053.874-.779 1.46-.779 2.633zM28.532 12.767l2.004-.194c.121.672.366 1.166.734 1.482.369.315.866.473 1.492.473.664 0 1.163-.141 1.5-.421.337-.28.505-.608.505-.984 0-.241-.07-.447-.212-.616s-.389-.316-.742-.441c-.241-.084-.791-.232-1.649-.445-1.104-.274-1.878-.61-2.324-1.009-.626-.561-.939-1.246-.939-2.052 0-.52.147-1.006.442-1.458.294-.452.719-.797 1.273-1.033s1.224-.355 2.008-.355c1.28 0 2.244.281 2.891.842.647.561.986 1.31 1.02 2.247l-2.06.091c-.089-.524-.277-.901-.567-1.131s-.725-.345-1.305-.345c-.599 0-1.067.123-1.406.369a.744.744 0 0 0-.327.633c0 .242.102.448.307.62.259.218.891.445 1.893.682 1.002.237 1.743.481 2.223.734s.855.598 1.127 1.037.407.979.407 1.624c0 .585-.162 1.133-.487 1.643-.324.511-.784.89-1.377 1.138-.595.248-1.334.372-2.22.372-1.29 0-2.28-.298-2.971-.894-.691-.597-1.104-1.465-1.239-2.606zM38.031 16.086v-10.2h7.563v1.726H40.09v2.261h5.121v1.718H40.09v2.776h5.698v1.719H38.03zM65.928 5.645l-2.332-2.333-5.665 5.665-5.665-5.665-2.332 2.333 5.665 5.665-5.665 5.665 2.332 2.332 5.665-5.665 5.665 5.665 2.332-2.332-5.664-5.665 5.664-5.665z" fill="#666"/></svg>
