<svg xmlns="http://www.w3.org/2000/svg" width="63" height="32" viewBox="0 0 63 32" preserveAspectRatio="xMinYMid meet"><defs><style>.cls-1{fill:none}.cls-2{fill:#666}</style></defs><path class="cls-1" d="M11.336 11.822h45.328v10.295H11.336z"/><path class="cls-2" d="M12.3 21.13v-9.306h1.829l3.809 6.214v-6.214h1.745v9.306h-1.885l-3.752-6.069v6.069h-1.745zM22.047 21.13v-9.306h6.9v1.574h-5.021v2.063h4.672v1.568h-4.672v2.532h5.199v1.569h-7.078zM30.149 21.13l3.18-4.856-2.882-4.45h2.195l1.868 2.99 1.828-2.99h2.177l-2.894 4.52 3.18 4.786h-2.266l-2.064-3.219-2.069 3.219H30.15zM42.238 21.13v-7.732h-2.761v-1.574h7.394v1.574h-2.754v7.732h-1.879zM12.285 23.609h8.504v1.941h-8.504z"/></svg>
