<svg xmlns="http://www.w3.org/2000/svg"  width="63" height="32" viewBox="0 0 63 32" preserveAspectRatio="xMinYMid meet"><defs><style>.cls-1{fill:none}.cls-2{fill:#666}</style></defs><path class="cls-1" d="M17.238 11.339h45.328v10.295H17.238z"/><path class="cls-2" d="M18.184 20.646V11.34h3.015c1.142 0 1.887.047 2.234.14.533.14.98.443 1.34.911.36.467.54 1.071.54 1.812 0 .571-.104 1.052-.312 1.44s-.47.696-.79.918a2.72 2.72 0 0 1-.974.442c-.45.089-1.099.133-1.95.133h-1.224v3.51h-1.88zm1.878-7.731v2.64h1.029c.74 0 1.236-.049 1.485-.146s.445-.25.588-.457c.141-.207.212-.449.212-.723 0-.339-.1-.618-.298-.838s-.451-.358-.756-.413c-.224-.042-.675-.063-1.352-.063h-.908zM26.081 20.646V11.34h3.955c.994 0 1.717.084 2.167.251.451.167.812.465 1.082.892.272.427.406.916.406 1.466 0 .698-.205 1.275-.615 1.73-.41.455-1.024.741-1.84.86.406.237.741.497 1.005.781.265.283.621.787 1.07 1.511l1.136 1.815H32.2l-1.358-2.025c-.483-.724-.813-1.18-.99-1.367a1.45 1.45 0 0 0-.565-.388c-.199-.07-.515-.105-.946-.105h-.381v3.885h-1.879zm1.879-5.37h1.39c.901 0 1.464-.038 1.689-.114s.4-.208.527-.394.19-.419.19-.698c0-.313-.084-.566-.251-.759-.167-.192-.403-.314-.708-.365-.152-.02-.609-.031-1.37-.031H27.96v2.36zM34.683 20.646V11.34h6.899v1.574h-5.02v2.063h4.67v1.568h-4.67v2.533h5.198v1.568h-7.077zM44.948 20.646l-3.326-9.306h2.037l2.356 6.887 2.278-6.887h1.993l-3.332 9.306h-2.006zM18.187 23.126h8.504v1.941h-8.504z"/></svg>
