<svg xmlns="http://www.w3.org/2000/svg" width="104" height="22" viewBox="0 0 104 22" preserveAspectRatio="xMinYMid meet"><defs><style>.cls-1{fill:none}.cls-2{fill:#666}</style></defs><path class="cls-2" d="M86.934 11.636h3.007v5.01h10.02v-5.01h3.007v8.017H86.934v-8.017z"/><path class="cls-1" d="M0 5.808h88.229v13.558H-.001V5.808z"/><path class="cls-2" d="M0 5.974h3.772c.852 0 1.499.065 1.946.194.6.177 1.112.491 1.54.942a4.45 4.45 0 0 1 .976 1.655c.224.654.335 1.459.335 2.416 0 .841-.104 1.567-.314 2.176-.255.744-.62 1.346-1.094 1.806-.358.349-.842.621-1.45.816-.456.144-1.065.216-1.828.216H0V5.974zm2.064 1.728v6.77h1.54c.577 0 .992-.031 1.249-.098.335-.082.612-.224.833-.424s.4-.529.54-.987.21-1.082.21-1.872-.07-1.397-.21-1.82c-.14-.423-.335-.753-.585-.99a1.968 1.968 0 0 0-.955-.482c-.289-.065-.853-.097-1.695-.097h-.927zm7.837 3.445c0-1.042.156-1.915.468-2.622a4.78 4.78 0 0 1 .952-1.401c.4-.414.842-.722 1.32-.921.638-.27 1.372-.405 2.204-.405 1.506 0 2.71.468 3.615 1.403.905.933 1.357 2.233 1.357 3.897 0 1.65-.45 2.943-1.346 3.874-.897.932-2.096 1.398-3.598 1.398-1.52 0-2.728-.464-3.626-1.391-.897-.928-1.346-2.205-1.346-3.832zm2.127-.07c0 1.158.268 2.036.802 2.633.535.596 1.213.896 2.036.896.822 0 1.499-.297 2.026-.89.527-.591.791-1.481.791-2.666 0-1.172-.257-2.046-.77-2.622-.514-.577-1.196-.865-2.047-.865-.851 0-1.537.291-2.057.875s-.782 1.463-.782 2.638h.001zm10.85 5.118l-2.44-10.221h2.112l1.54 7.02 1.87-7.02h2.454l1.792 7.14 1.568-7.14h2.079L31.37 16.195h-2.19l-2.036-7.642-2.028 7.642h-2.239.001zm12.049 0V5.974h2.007l4.184 6.825V5.974h1.918v10.221h-2.071L36.844 9.53v6.666h-1.917zm10.347 0V6.055h2.064v8.417h5.131v1.722h-7.195v.001zm8.25-5.048c0-1.042.155-1.915.466-2.622a4.78 4.78 0 0 1 .952-1.401 3.967 3.967 0 0 1 1.321-.921c.637-.27 1.37-.405 2.205-.405 1.505 0 2.71.468 3.614 1.403.904.933 1.356 2.233 1.356 3.897 0 1.65-.449 2.943-1.346 3.874-.897.932-2.096 1.398-3.597 1.398-1.52 0-2.729-.464-3.627-1.391-.897-.928-1.345-2.205-1.345-3.832zm2.126-.07c0 1.158.266 2.036.801 2.633.535.596 1.213.896 2.037.896s1.498-.297 2.025-.89c.528-.591.792-1.481.792-2.666 0-1.172-.257-2.046-.772-2.622s-1.195-.865-2.045-.865-1.536.291-2.058.875-.781 1.463-.781 2.638zm18.617 5.118h-2.245l-.892-2.32h-4.088l-.844 2.32h-2.189l3.98-10.221h2.183l4.094 10.221h.001zm-3.8-4.044l-1.409-3.793-1.38 3.793h2.79zm4.888-6.177h3.771c.851 0 1.5.065 1.947.194a3.43 3.43 0 0 1 1.54.942c.429.451.753 1.002.977 1.655.223.654.335 1.459.335 2.416 0 .841-.105 1.567-.315 2.176-.255.744-.621 1.346-1.094 1.806-.358.349-.842.621-1.45.816-.456.144-1.066.216-1.827.216h-3.884V5.973zm2.064 1.728v6.77h1.54c.577 0 .992-.031 1.25-.098.335-.082.611-.224.832-.424.22-.2.402-.529.54-.987.141-.458.21-1.082.21-1.872s-.07-1.397-.21-1.82c-.139-.423-.334-.753-.584-.99a1.967 1.967 0 0 0-.956-.482c-.288-.065-.852-.097-1.694-.097h-.928zm18.753-5.514h-2.428a.895.895 0 0 0-.89.89V6.67a.895.895 0 0 1-.892.891h-1.55a.897.897 0 0 0-.705 1.451l4.468 5.746a.906.906 0 0 0 1.423 0l4.597-5.746a.899.899 0 0 0-.718-1.451h-1.524a.895.895 0 0 1-.89-.892V3.08a.895.895 0 0 0-.891-.891z"/></svg>
